<?xml version="1.0" encoding="utf-8"?>
<!-- Generated by IcoMoon.io -->
<!DOCTYPE svg PUBLIC "-//W3C//DTD SVG 1.1//EN" "http://www.w3.org/Graphics/SVG/1.1/DTD/svg11.dtd">
<svg version="1.1" xmlns="http://www.w3.org/2000/svg" xmlns:xlink="http://www.w3.org/1999/xlink" width="32" height="32" viewBox="0 0 1024 1024">
<g id="icomoon-ignore">
</g>
<path d="M830.362 193.638c-91.853-91.853-214.016-142.438-343.962-142.438s-252.058 50.586-343.962 142.438-142.438 214.016-142.438 343.91 50.586 252.058 142.438 343.962 214.016 142.438 343.962 142.438 252.058-50.586 343.962-142.438 142.438-214.016 142.438-343.962-50.586-252.058-142.438-343.91zM486.4 972.8c-239.974 0-435.2-195.226-435.2-435.2s195.226-435.2 435.2-435.2c239.974 0 435.2 195.226 435.2 435.2s-195.226 435.2-435.2 435.2z"></path>
<path d="M409.6 819.2c-6.554 0-13.107-2.509-18.125-7.475-9.984-9.984-9.984-26.214 0-36.198l237.875-237.875-237.875-237.875c-9.984-9.984-9.984-26.214 0-36.198s26.214-9.984 36.198 0l256 256c9.984 9.984 9.984 26.214 0 36.198l-256 256c-5.018 5.018-11.571 7.475-18.125 7.475z"></path>
</svg>
