<svg id="Layer_1" data-name="Layer 1" xmlns="http://www.w3.org/2000/svg" viewBox="0 0 1024 1024"><defs><style>.cls-1{fill:none;}</style></defs><title>icon</title><polygon class="cls-1" points="807.5 294.3 616.88 107.5 216.5 107.5 216.5 419 807.5 419 807.5 294.3"/><polyline class="cls-1" points="186.5 449 60.5 449 60.5 787 186.5 787"/><rect class="cls-1" x="216.5" y="817" width="591" height="99.5"/><path d="M807.5,916.5h-591V817h-30V921.5a25,25,0,0,0,25,25h601a25,25,0,0,0,25-25V817h-30Z"/><rect x="216.5" y="787" width="591" height="30"/><path d="M967.2,419H837.5V288a15,15,0,0,0-4.5-10.71L633.5,81.79A15,15,0,0,0,623,77.5H211.5a25,25,0,0,0-25,25V419H56.8A26.34,26.34,0,0,0,30.5,445.31V790.69A26.34,26.34,0,0,0,56.8,817H216.5V787H60.5V449h903V787h-156v30H967.2a26.34,26.34,0,0,0,26.31-26.31V445.31A26.34,26.34,0,0,0,967.2,419ZM637.66,127.87,787.44,274.65H636.81ZM807.5,419h-591V107.5H607.78l-1.05,182.06a15,15,0,0,0,15,15.09H807.5Z"/><path d="M364.59,531.69q9.95,13.83,10,33.1,0,19.86-10,31.92-5.61,6.77-16.54,12.36,16.6,6,25,19.12T381.46,660a63.4,63.4,0,0,1-9.65,34.57A59.69,59.69,0,0,1,332,722.47a150.18,150.18,0,0,1-30.64,2.94H203.62V508.6H308.4Q348.06,509.19,364.59,531.69ZM246.87,546.26v47.8h52.7q14.12,0,22.93-5.37t8.81-19q0-15.15-11.65-20-10-3.38-25.62-3.38Zm0,83.7v57.81h52.64q14.1,0,22-3.82,14.25-7.06,14.25-27.06,0-16.91-13.81-23.24-7.71-3.53-21.67-3.68Z"/><path d="M564.26,508.6h65.19V725.41H587.24V578.76q0-6.32.15-17.72t.15-17.58l-41.09,182h-44l-40.79-182q0,6.18.15,17.58t.15,17.72V725.41H419.7V508.6h65.92l39.47,170.48Z"/><path d="M816.93,631.57q-19,15.89-54.37,15.89H717.41v78h-45V508.6H765.5q32.19,0,51.33,16.77T836,577.29Q836,615.68,816.93,631.57Zm-34.58-78.1q-8.61-7.21-24.11-7.21H717.41v63.84h40.83q15.51,0,24.11-7.79T791,577.59Q791,560.67,782.35,553.46Z"/></svg>