<?xml version="1.0" encoding="utf-8"?>
<!-- Generator: Adobe Illustrator 21.0.0, SVG Export Plug-In . SVG Version: 6.00 Build 0)  -->
<svg version="1.1"  xmlns="http://www.w3.org/2000/svg" xmlns:xlink="http://www.w3.org/1999/xlink" x="0px" y="0px"
	 viewBox="0 0 1024 1024" style="enable-background:new 0 0 1024 1024;" xml:space="preserve">
<g id="icomoon-ignore">
</g>
<path d="M672,416v-96L480,96H128.1C92.7,96,64,124.7,64,160.2v735.5c0,35.5,28.5,64.2,63.9,64.2h480.2c35.3,0,63.9-28.7,63.9-63.7
	V832h255.8c53.1,0,96.2-43,96.2-96V512c0-53-42.8-96-96.2-96L672,416L672,416z M640,832v64.2c0,17.5-14.3,31.8-32,31.8H128
	c-17.4,0-32-14.3-32-31.9V159.9c0-17.3,14.3-31.9,31.9-31.9H448v159.8c0,35.8,28.6,64.2,63.9,64.2H640v64H246.2
	c-53.1,0-96.2,43-96.2,96V736c0,53,42.8,96,96.2,96L640,832L640,832z M480,144l150.4,176H511.9c-17.5,0-31.9-14.5-31.9-32.3L480,144
	L480,144z M245.8,448h682.3c35,0,63.8,28.5,63.8,63.7v224.5c0,34.9-28.6,63.7-63.8,63.7H245.8c-35,0-63.8-28.5-63.8-63.7V511.7
	C182,476.8,210.6,448,245.8,448z"/>
<polygon points="478,544 478,704 446,704 446,736 542,736 542,704 510,704 510,544 542,544 542,512 446,512 446,544 "/>
<polygon points="287,608 287,544 415,544 415,512 255,512 255,736 287,736 287,640 383,640 383,608 "/>
<polygon points="730,704 730,736 570,736 570,512 602,512 602,704 "/>
<polygon points="792,640 792,704 920,704 920,736 760,736 760,512 920,512 920,544 792,544 792,608 888,608 888,640 "/>
</svg>
