<svg  data-name="Layer 1" xmlns="http://www.w3.org/2000/svg" viewBox="0 0 1024 1024"><defs><style>.cls-1{fill:none;}</style></defs><title>icon</title><polygon class="cls-1" points="807.5 294.3 616.88 107.5 216.5 107.5 216.5 419 807.5 419 807.5 294.3"/><polyline class="cls-1" points="186.5 449 60.5 449 60.5 787 186.5 787"/><rect class="cls-1" x="216.5" y="817" width="591" height="99.5"/><path d="M807.5,916.5h-591V817h-30V921.5a25,25,0,0,0,25,25h601a25,25,0,0,0,25-25V817h-30Z"/><rect x="216.5" y="787" width="591" height="30"/><path d="M967.2,419H837.5V288a15,15,0,0,0-4.5-10.71L633.5,81.79A15,15,0,0,0,623,77.5H211.5a25,25,0,0,0-25,25V419H56.8A26.34,26.34,0,0,0,30.5,445.31V790.69A26.34,26.34,0,0,0,56.8,817H216.5V787H60.5V449h903V787h-156v30H967.2a26.34,26.34,0,0,0,26.31-26.31V445.31A26.34,26.34,0,0,0,967.2,419ZM637.66,127.87,787.44,274.65H636.81ZM807.5,419h-591V107.5H607.78l-1.05,182.06a15,15,0,0,0,15,15.09H807.5Z"/><path d="M327.28,513.31a71.65,71.65,0,0,1,36.95,27.51,96.48,96.48,0,0,1,15.46,35,167.88,167.88,0,0,1,4.12,35.89q0,43.24-17.37,73.25-23.55,40.45-72.72,40.45H200.24V508.6h93.48Q313.89,508.9,327.28,513.31Zm-83.06,32.95v141.5h41.84q32.12,0,44.79-31.62,6.92-17.35,6.92-41.33,0-33.1-10.39-50.82t-41.32-17.72Z"/><path d="M584.74,706.15q-24.57,25.3-71,25.3t-71-25.3q-33-31-32.95-89.43,0-59.57,32.95-89.43,24.56-25.3,71-25.3t71,25.3q32.8,29.86,32.8,89.43Q617.54,675.11,584.74,706.15ZM556.42,673.2q15.81-19.86,15.81-56.48t-15.81-56.41q-15.81-19.93-42.73-19.93t-43,19.86q-16,19.86-16,56.48t16,56.48q16,19.86,43,19.86T556.42,673.2Z"/><path d="M672.82,531.25q26.19-26.77,66.65-26.77,54.13,0,79.16,35.89,13.82,20.15,14.84,40.45h-45.3q-4.32-15.59-11.1-23.53-12.1-14.12-35.88-14.12Q717,543.17,703,563.1t-14,56.41q0,36.48,14.75,54.64t37.48,18.17q23.31,0,35.54-15.59,6.76-8.38,11.22-25.15h45q-5.82,35.45-29.76,57.66t-61.33,22.21q-46.28,0-72.76-30t-26.48-82.67Q642.69,562,672.82,531.25Z"/></svg>