<svg id="Layer_1" data-name="Layer 1" xmlns="http://www.w3.org/2000/svg" viewBox="0 0 1024 1024"><defs><style>.cls-1{fill:none;}</style></defs><title>icon</title><polygon class="cls-1" points="807.5 294.3 616.88 107.5 216.5 107.5 216.5 419 807.5 419 807.5 294.3"/><polyline class="cls-1" points="186.5 449 60.5 449 60.5 787 186.5 787"/><rect class="cls-1" x="216.5" y="817" width="591" height="99.5"/><path d="M807.5,916.5h-591V817h-30V921.5a25,25,0,0,0,25,25h601a25,25,0,0,0,25-25V817h-30Z"/><rect x="216.5" y="787" width="591" height="30"/><path d="M967.2,419H837.5V288a15,15,0,0,0-4.5-10.71L633.5,81.79A15,15,0,0,0,623,77.5H211.5a25,25,0,0,0-25,25V419H56.8A26.34,26.34,0,0,0,30.5,445.31V790.69A26.34,26.34,0,0,0,56.8,817H216.5V787H60.5V449h903V787h-156v30H967.2a26.34,26.34,0,0,0,26.31-26.31V445.31A26.34,26.34,0,0,0,967.2,419ZM637.66,127.87,787.44,274.65H636.81ZM807.5,419h-591V107.5H607.78l-1.05,182.06a15,15,0,0,0,15,15.09H807.5Z"/><path d="M243.59,513.31a71.65,71.65,0,0,1,36.95,27.51,96.48,96.48,0,0,1,15.46,35,167.91,167.91,0,0,1,4.12,35.89q0,43.24-17.37,73.25Q259.19,725.42,210,725.42H116.54V508.6H210Q230.19,508.9,243.59,513.31Zm-83.06,32.95v141.5h41.84q32.12,0,44.78-31.62,6.92-17.35,6.92-41.33,0-33.1-10.39-50.82t-41.32-17.72Z"/><path d="M501,706.15q-24.57,25.3-71,25.3t-71-25.3q-33-31-32.95-89.43,0-59.57,32.95-89.43Q383.51,502,430,502t71,25.3q32.8,29.86,32.8,89.43Q533.84,675.11,501,706.15ZM472.73,673.2q15.81-19.86,15.81-56.48t-15.81-56.41Q456.91,540.38,430,540.37t-43,19.86q-16,19.86-16,56.48t16,56.48q16,19.86,43,19.86T472.73,673.2Z"/><path d="M725.94,508.6V547H661.08V725.42h-45.6V547H550.32V508.6Z"/><path d="M787.06,725.42H734.4l69.72-110.47L737.79,508.6h54.13l38.67,70.61,39.73-70.61h52.36L856.34,613.18,926.8,725.42h-55l-41.2-73.93Z"/></svg>