<svg  data-name="Layer 1" xmlns="http://www.w3.org/2000/svg" viewBox="0 0 1024 1024"><defs><style>.cls-1{fill:none;}</style></defs><title>icon</title><polygon class="cls-1" points="806.15 292.48 614.37 106.86 214 109.34 215.93 420.83 806.92 417.17 806.15 292.48"/><polyline class="cls-1" points="186.12 451.02 60.12 451.8 62.21 789.79 188.21 789.01"/><rect class="cls-1" x="218.7" y="816.99" width="591" height="99.5" transform="translate(-5.36 3.2) rotate(-0.35)"/><line class="cls-1" x1="807.1" y1="447.17" x2="216.12" y2="450.83"/><line class="cls-1" x1="218.21" y1="788.83" x2="809.2" y2="785.16"/><path d="M810,914.66l-591,3.66-.62-99.5-30,.19.65,104.5a25,25,0,0,0,25.15,24.84l601-3.72A25,25,0,0,0,840,919.48L839.38,815l-30,.19Z"/><rect x="218.3" y="786.99" width="591" height="30" transform="translate(-4.96 3.2) rotate(-0.35)"/><path d="M966.61,416.18l-129.69.8-.81-131a15,15,0,0,0-4.57-10.69L630.83,81a15,15,0,0,0-10.53-4.22L208.81,79.37A25,25,0,0,0,184,104.52l2,316.49-129.69.8a26.34,26.34,0,0,0-26.14,26.47l2.14,345.38A26.34,26.34,0,0,0,58.7,819.81L188.4,819l30-.19-.19-30-30,.19-126,.78-2.09-338,126-.78,30-.19,591-3.66,30-.19,126-.78,2.09,338-126,.78-30,.19.19,30,30-.19,129.69-.8a26.34,26.34,0,0,0,26.14-26.47l-2.14-345.38A26.34,26.34,0,0,0,966.61,416.18ZM635.28,127.1,786,272.94l-150.62.93ZM806.92,417.17l-591,3.66L214,109.34l391.27-2.42L605.35,289a15,15,0,0,0,15.09,15l185.77-1.15Z"/><path d="M208.61,510.78l154.59-1,.24,38.1-109.58.68.31,49.86,96-.6.23,37.66-96,.6L255,727l-45,.28Z"/><path d="M435.29,725.9l-45,.28-1.34-216.81,45-.28Z"/><path d="M476.31,508.82l45.3-.28,1.1,177.83L631,685.7l.24,39-153.56,1Z"/><path d="M820.88,545.08l-114.73.71.29,46,105.32-.65.23,37.66-105.32.65.35,55.75,120-.74.24,39-164.3,1-1.34-216.81,159-1Z"/></svg>