<svg id="Layer_1" data-name="Layer 1" xmlns="http://www.w3.org/2000/svg" viewBox="0 0 1024 1024"><defs><style>.cls-1{fill:none;}</style></defs><title>icon</title><polygon class="cls-1" points="807.5 294.3 616.88 107.5 216.5 107.5 216.5 419 807.5 419 807.5 294.3"/><polyline class="cls-1" points="186.5 449 60.5 449 60.5 787 186.5 787"/><rect class="cls-1" x="216.5" y="817" width="591" height="99.5"/><path d="M807.5,916.5h-591V817h-30V921.5a25,25,0,0,0,25,25h601a25,25,0,0,0,25-25V817h-30Z"/><rect x="216.5" y="787" width="591" height="30"/><path d="M967.2,419H837.5V288a15,15,0,0,0-4.5-10.71L633.5,81.79A15,15,0,0,0,623,77.5H211.5a25,25,0,0,0-25,25V419H56.8A26.34,26.34,0,0,0,30.5,445.31V790.69A26.34,26.34,0,0,0,56.8,817H216.5V787H60.5V449h903V787h-156v30H967.2a26.34,26.34,0,0,0,26.31-26.31V445.31A26.34,26.34,0,0,0,967.2,419ZM637.66,127.87,787.44,274.65H636.81ZM807.5,419h-591V107.5H607.78l-1.05,182.06a15,15,0,0,0,15,15.09H807.5Z"/><path d="M260,643.19v5q.55,25.15,5.18,35.38T285,693.79q15.06,0,19.9-11.18,2.9-6.62,2.9-22.36V508.6h45.3V659.52q0,27.66-9.35,43.83Q328,730.71,286.7,730.71t-55.37-22.14q-14.09-22.14-14.09-60.38v-5Z"/><path d="M546.65,631.57q-19,15.88-54.37,15.89H447.13v78h-45V508.6h93.09q32.19,0,51.33,16.77t19.14,51.92Q565.69,615.68,546.65,631.57Zm-34.58-78.11q-8.6-7.2-24.11-7.21H447.13V610.1H488q15.51,0,24.11-7.8t8.61-24.71Q520.68,560.68,512.07,553.47Z"/><path d="M747.79,576.26q-5.15-22.21-25.15-31a61.79,61.79,0,0,0-24.86-4.85q-26.18,0-43,19.75T637.91,619.5q0,39.93,18.24,56.52t41.48,16.59q22.8,0,37.36-13.08t17.95-34.28H702.78V609.07h90.31V725.41h-30l-4.56-27.06Q745.43,713.73,735,720,717,731,690.86,731q-43.1,0-70.6-29.84-28.68-30-28.68-82,0-52.62,29-84.37T697.19,503q41.33,0,66.41,21t28.76,52.29Z"/></svg>