<svg id="Layer_1" data-name="Layer 1" xmlns="http://www.w3.org/2000/svg" viewBox="0 0 1024 1024"><defs><style>.cls-1{fill:none;}</style></defs><title>icon</title><polygon class="cls-1" points="807.5 294.3 616.88 107.5 216.5 107.5 216.5 419 807.5 419 807.5 294.3"/><polyline class="cls-1" points="186.5 449 60.5 449 60.5 787 186.5 787"/><rect class="cls-1" x="216.5" y="817" width="591" height="99.5"/><path d="M807.5,916.5h-591V817h-30V921.5a25,25,0,0,0,25,25h601a25,25,0,0,0,25-25V817h-30Z"/><rect x="216.5" y="787" width="591" height="30"/><path d="M967.2,419H837.5V288a15,15,0,0,0-4.5-10.71L633.5,81.79A15,15,0,0,0,623,77.5H211.5a25,25,0,0,0-25,25V419H56.8A26.34,26.34,0,0,0,30.5,445.31V790.69A26.34,26.34,0,0,0,56.8,817H216.5V787H60.5V449h903V787h-156v30H967.2a26.34,26.34,0,0,0,26.31-26.31V445.31A26.34,26.34,0,0,0,967.2,419ZM637.66,127.87,787.44,274.65H636.81ZM807.5,419h-591V107.5H607.78l-1.05,182.06a15,15,0,0,0,15,15.09H807.5Z"/><path d="M344.07,508.6h65.19V725.42H367V578.77q0-6.32.15-17.72t.15-17.58l-41.09,182h-44l-40.79-182q0,6.18.15,17.58t.15,17.72V725.42H199.5V508.6h65.92L304.9,679.08Z"/><path d="M451.91,508.6h44.57v89.33l83.77-89.33h58.54l-89,89.17,93.53,127.64H585.1l-66.8-94.64L496.48,652.9v72.52H451.91Z"/><path d="M795.59,508.6h47.07L768.74,725.42h-42.8L652.62,508.6H701L748.08,673.2Z"/></svg>