<svg  data-name="Layer 1" xmlns="http://www.w3.org/2000/svg" viewBox="0 0 1024 1024"><defs><style>.cls-1{fill:none;}</style></defs><title>icon</title><polygon class="cls-1" points="807.5 294.3 616.88 107.5 216.5 107.5 216.5 419 807.5 419 807.5 294.3"/><polyline class="cls-1" points="186.5 449 60.5 449 60.5 787 186.5 787"/><rect class="cls-1" x="216.5" y="817" width="591" height="99.5"/><path d="M807.5,916.5h-591V817h-30V921.5a25,25,0,0,0,25,25h601a25,25,0,0,0,25-25V817h-30Z"/><rect x="216.5" y="787" width="591" height="30"/><path d="M967.2,419H837.5V288a15,15,0,0,0-4.5-10.71L633.5,81.79A15,15,0,0,0,623,77.5H211.5a25,25,0,0,0-25,25V419H56.8A26.34,26.34,0,0,0,30.5,445.31V790.69A26.34,26.34,0,0,0,56.8,817H216.5V787H60.5V449h903V787h-156v30H967.2a26.34,26.34,0,0,0,26.31-26.31V445.31A26.34,26.34,0,0,0,967.2,419ZM637.66,127.87,787.44,274.65H636.81ZM807.5,419h-591V107.5H607.78l-1.05,182.06a15,15,0,0,0,15,15.09H807.5Z"/><path d="M335.68,508.6h65.19V725.41H358.66V578.76q0-6.32.15-17.72t.15-17.58l-41.09,182h-44L233,543.46q0,6.18.15,17.58t.15,17.72V725.41H191.12V508.6H257l39.47,170.48Z"/><path d="M609.74,706.15q-24.57,25.3-71,25.3t-71-25.3q-33-31-32.95-89.43,0-59.57,32.95-89.43,24.56-25.3,71-25.3t71,25.3q32.8,29.86,32.8,89.43Q642.54,675.11,609.74,706.15ZM581.43,673.2q15.81-19.86,15.81-56.48t-15.81-56.41q-15.81-19.93-42.73-19.93t-42.95,19.86q-16,19.86-16,56.48t16,56.48q16,19.86,42.95,19.86T581.43,673.2Z"/><path d="M804,508.6H851L777.13,725.41h-42.8L661,508.6H709.4L756.47,673.2Z"/></svg>