<svg id="Layer_1" data-name="Layer 1" xmlns="http://www.w3.org/2000/svg" viewBox="0 0 1024 1024"><defs><style>.cls-1{fill:none;}</style></defs><title>icon</title><polygon class="cls-1" points="807.5 294.3 616.88 107.5 216.5 107.5 216.5 419 807.5 419 807.5 294.3"/><polyline class="cls-1" points="186.5 449 60.5 449 60.5 787 186.5 787"/><rect class="cls-1" x="216.5" y="817" width="591" height="99.5"/><path d="M807.5,916.5h-591V817h-30V921.5a25,25,0,0,0,25,25h601a25,25,0,0,0,25-25V817h-30Z"/><rect x="216.5" y="787" width="591" height="30"/><path d="M967.2,419H837.5V288a15,15,0,0,0-4.5-10.71L633.5,81.79A15,15,0,0,0,623,77.5H211.5a25,25,0,0,0-25,25V419H56.8A26.34,26.34,0,0,0,30.5,445.31V790.69A26.34,26.34,0,0,0,56.8,817H216.5V787H60.5V449h903V787h-156v30H967.2a26.34,26.34,0,0,0,26.31-26.31V445.31A26.34,26.34,0,0,0,967.2,419ZM637.66,127.87,787.44,274.65H636.81ZM807.5,419h-591V107.5H607.78l-1.05,182.06a15,15,0,0,0,15,15.09H807.5Z"/><path d="M369.07,508.6h65.19V725.41H392V578.76q0-6.32.15-17.72t.15-17.58l-41.09,182h-44l-40.79-182q0,6.18.15,17.58t.15,17.72V725.41H224.51V508.6h65.92L329.9,679.08Z"/><path d="M621.74,631.57q-19,15.89-54.37,15.89H522.22v78h-45V508.6h93.09q32.19,0,51.33,16.77t19.14,51.92Q640.78,615.68,621.74,631.57Zm-34.58-78.1q-8.61-7.21-24.11-7.21H522.22V610.1h40.83q15.51,0,24.11-7.8t8.61-24.71Q595.77,560.68,587.16,553.47Z"/><path d="M703.29,660q0,12.8,4.11,21.18,7.63,15.44,27.73,15.44a30.68,30.68,0,0,0,21.5-8.46q9.17-8.46,9.17-24.34,0-21-17-28.09-9.68-4-30.5-4v-30q20.37-.29,28.44-4,13.92-6.18,13.93-25,0-12.21-7.12-19.86t-20-7.65q-14.82,0-21.79,9.41t-6.67,25.15H665.93a105.29,105.29,0,0,1,5.44-30.15,67.88,67.88,0,0,1,16.16-23.09,56.23,56.23,0,0,1,19.54-11.47q11.31-4,27.77-4,30.56,0,49.3,15.81t18.73,42.44q0,18.83-11.18,31.77-7.06,8.09-14.71,11,5.74,0,16.47,9.86,16,14.86,16,40.6,0,27.07-18.74,47.58t-55.47,20.52q-45.26,0-62.89-29.57-9.26-15.74-10.29-41.19Z"/></svg>