<svg id="Layer_1" data-name="Layer 1" xmlns="http://www.w3.org/2000/svg" viewBox="0 0 1024 1024"><defs><style>.cls-1{fill:none;}</style></defs><title>icon</title><path d="M369.07,509.6h65.19V726.42H392V579.76q0-6.32.15-17.72t.15-17.58l-41.09,182h-44l-40.79-182q0,6.18.15,17.58t.15,17.72V726.42H224.51V509.6h65.92L329.9,680.08Z"/><path d="M621.74,632.57q-19,15.89-54.37,15.89H522.22v78h-45V509.6h93.09q32.19,0,51.33,16.77t19.14,51.92Q640.78,616.68,621.74,632.57Zm-34.58-78.11q-8.61-7.2-24.11-7.21H522.22V611.1H563q15.51,0,24.11-7.8t8.61-24.71Q595.77,561.67,587.16,554.46Z"/><path d="M811.7,680.52H787.58v45.89h-41V680.52H662.11V643.9l78.4-129.44h47.07V647.72H811.7Zm-65.16-32.8V555.86L693.3,647.72Z"/><polygon class="cls-1" points="807.5 294.3 616.88 107.5 216.5 107.5 216.5 419 807.5 419 807.5 294.3"/><polyline class="cls-1" points="186.5 449 60.5 449 60.5 787 186.5 787"/><rect class="cls-1" x="216.5" y="817" width="591" height="99.5"/><path d="M807.5,916.5h-591V817h-30V921.5a25,25,0,0,0,25,25h601a25,25,0,0,0,25-25V817h-30Z"/><rect x="216.5" y="787" width="591" height="30"/><path d="M967.2,419H837.5V288a15,15,0,0,0-4.5-10.71L633.5,81.79A15,15,0,0,0,623,77.5H211.5a25,25,0,0,0-25,25V419H56.8A26.34,26.34,0,0,0,30.5,445.31V790.69A26.34,26.34,0,0,0,56.8,817H216.5V787H60.5V449h903V787h-156v30H967.2a26.34,26.34,0,0,0,26.31-26.31V445.31A26.34,26.34,0,0,0,967.2,419ZM637.66,127.87,787.44,274.65H636.81ZM807.5,419h-591V107.5H607.78l-1.05,182.06a15,15,0,0,0,15,15.09H807.5Z"/></svg>