<svg id="Layer_1" data-name="Layer 1" xmlns="http://www.w3.org/2000/svg" viewBox="0 0 1024 1024"><defs><style>.cls-1{fill:none;}</style></defs><title>icon</title><polygon class="cls-1" points="807.5 294.3 616.88 107.5 216.5 107.5 216.5 419 807.5 419 807.5 294.3"/><polyline class="cls-1" points="186.5 449 60.5 449 60.5 787 186.5 787"/><rect class="cls-1" x="216.5" y="817" width="591" height="99.5"/><path d="M807.5,916.5h-591V817h-30V921.5a25,25,0,0,0,25,25h601a25,25,0,0,0,25-25V817h-30Z"/><rect x="216.5" y="787" width="591" height="30"/><path d="M967.2,419H837.5V288a15,15,0,0,0-4.5-10.71L633.5,81.79A15,15,0,0,0,623,77.5H211.5a25,25,0,0,0-25,25V419H56.8A26.34,26.34,0,0,0,30.5,445.31V790.69A26.34,26.34,0,0,0,56.8,817H216.5V787H60.5V449h903V787h-156v30H967.2a26.34,26.34,0,0,0,26.31-26.31V445.31A26.34,26.34,0,0,0,967.2,419ZM637.66,127.87,787.44,274.65H636.81ZM807.5,419h-591V107.5H607.78l-1.05,182.06a15,15,0,0,0,15,15.09H807.5Z"/><path d="M379.26,631.57q-19,15.89-54.37,15.89H279.74v78h-45V508.6h93.09q32.19,0,51.33,16.77t19.14,51.92Q398.3,615.69,379.26,631.57Zm-34.58-78.1q-8.6-7.21-24.11-7.21H279.74V610.1h40.83q15.51,0,24.11-7.79t8.61-24.71Q353.29,560.68,344.68,553.47Z"/><path d="M561.67,513.31a71.63,71.63,0,0,1,36.95,27.51,96.42,96.42,0,0,1,15.46,35,167.93,167.93,0,0,1,4.12,35.89q0,43.24-17.37,73.25-23.55,40.45-72.72,40.45H434.63V508.6h93.48Q548.28,508.9,561.67,513.31Zm-83.06,32.95v141.5h41.84q32.12,0,44.78-31.62,6.92-17.35,6.93-41.33,0-33.1-10.39-50.82t-41.32-17.72Z"/><path d="M652.18,508.9H806.77V547H697.19v49.86h96.05v37.66H697.19v90.9h-45Z"/></svg>