<svg  data-name="Layer 1" xmlns="http://www.w3.org/2000/svg" viewBox="0 0 1024 1024"><defs><style>.cls-1{fill:none;}</style></defs><title>icon</title><polygon class="cls-1" points="807.5 294.3 616.88 107.5 216.5 107.5 216.5 419 807.5 419 807.5 294.3"/><polyline class="cls-1" points="186.5 449 60.5 449 60.5 787 186.5 787"/><rect class="cls-1" x="216.5" y="817" width="591" height="99.5"/><path d="M807.5,916.5h-591V817h-30V921.5a25,25,0,0,0,25,25h601a25,25,0,0,0,25-25V817h-30Z"/><rect x="216.5" y="787" width="591" height="30"/><path d="M967.2,419H837.5V288a15,15,0,0,0-4.5-10.71L633.5,81.79A15,15,0,0,0,623,77.5H211.5a25,25,0,0,0-25,25V419H56.8A26.34,26.34,0,0,0,30.5,445.31V790.69A26.34,26.34,0,0,0,56.8,817H216.5V787H60.5V449h903V787h-156v30H967.2a26.34,26.34,0,0,0,26.31-26.31V445.31A26.34,26.34,0,0,0,967.2,419ZM637.66,127.87,787.44,274.65H636.81ZM807.5,419h-591V107.5H607.78l-1.05,182.06a15,15,0,0,0,15,15.09H807.5Z"/><path d="M354.11,631.57q-19,15.89-54.37,15.89H254.59v78h-45V508.6h93.09q32.19,0,51.33,16.77t19.14,51.92Q373.15,615.68,354.11,631.57Zm-34.58-78.1q-8.6-7.21-24.11-7.21H254.59v63.84h40.83q15.51,0,24.11-7.8t8.61-24.71Q328.14,560.67,319.53,553.46Z"/><path d="M408.74,508.6h47.49L542.3,659.78V508.6h42.22V725.41H539.22L451,571.58V725.41H408.74Z"/><path d="M772.79,576.26q-5.15-22.21-25.15-31a61.78,61.78,0,0,0-24.86-4.85q-26.18,0-43,19.75T662.92,619.5q0,39.94,18.24,56.52t41.48,16.59q22.8,0,37.36-13.08t17.95-34.28H727.78V609.06H818.1V725.41h-30l-4.56-27.06Q770.44,713.72,760,720,742,731,715.87,731q-43.1,0-70.6-29.84-28.68-30-28.68-82,0-52.62,29-84.37T722.19,503q41.33,0,66.41,21t28.76,52.29Z"/></svg>