<svg  data-name="Layer 1" xmlns="http://www.w3.org/2000/svg" viewBox="0 0 1024 1024"><defs><style>.cls-1{fill:none;}</style></defs><title>icon</title><polygon class="cls-1" points="807.5 294.3 616.88 107.5 216.5 107.5 216.5 419 807.5 419 807.5 294.3"/><polyline class="cls-1" points="186.5 449 60.5 449 60.5 787 186.5 787"/><rect class="cls-1" x="216.5" y="817" width="591" height="99.5"/><path d="M807.5,916.5h-591V817h-30V921.5a25,25,0,0,0,25,25h601a25,25,0,0,0,25-25V817h-30Z"/><rect x="216.5" y="787" width="591" height="30"/><path d="M967.2,419H837.5V288a15,15,0,0,0-4.5-10.71L633.5,81.79A15,15,0,0,0,623,77.5H211.5a25,25,0,0,0-25,25V419H56.8A26.34,26.34,0,0,0,30.5,445.31V790.69A26.34,26.34,0,0,0,56.8,817H216.5V787H60.5V449h903V787h-156v30H967.2a26.34,26.34,0,0,0,26.31-26.31V445.31A26.34,26.34,0,0,0,967.2,419ZM637.66,127.87,787.44,274.65H636.81ZM807.5,419h-591V107.5H607.78l-1.05,182.06a15,15,0,0,0,15,15.09H807.5Z"/><path d="M387.57,631.57q-19,15.89-54.37,15.89H288.05v78H243V508.6h93.09q32.19,0,51.33,16.77t19.14,51.92Q406.61,615.69,387.57,631.57ZM353,553.47q-8.6-7.21-24.11-7.21H288.05V610.1h40.83q15.51,0,24.11-7.79t8.61-24.71Q361.6,560.68,353,553.47Z"/><path d="M588.5,631.57q-19,15.89-54.37,15.89H489v78H444V508.6h93.09q32.19,0,51.33,16.77t19.14,51.92Q607.54,615.69,588.5,631.57Zm-34.58-78.1q-8.6-7.21-24.11-7.21H489V610.1h40.83q15.51,0,24.11-7.79t8.61-24.71Q562.53,560.68,553.92,553.47Z"/><path d="M801.4,508.6V547H736.54V725.42h-45.6V547H625.78V508.6Z"/></svg>