<svg  data-name="Layer 1" xmlns="http://www.w3.org/2000/svg" viewBox="0 0 1024 1024"><defs><style>.cls-1{fill:none;}</style></defs><title>icon</title><polygon class="cls-1" points="807.5 294.3 616.88 107.5 216.5 107.5 216.5 419 807.5 419 807.5 294.3"/><polyline class="cls-1" points="186.5 449 60.5 449 60.5 787 186.5 787"/><rect class="cls-1" x="216.5" y="817" width="591" height="99.5"/><path d="M807.5,916.5h-591V817h-30V921.5a25,25,0,0,0,25,25h601a25,25,0,0,0,25-25V817h-30Z"/><rect x="216.5" y="787" width="591" height="30"/><path d="M967.2,419H837.5V288a15,15,0,0,0-4.5-10.71L633.5,81.79A15,15,0,0,0,623,77.5H211.5a25,25,0,0,0-25,25V419H56.8A26.34,26.34,0,0,0,30.5,445.31V790.69A26.34,26.34,0,0,0,56.8,817H216.5V787H60.5V449h903V787h-156v30H967.2a26.34,26.34,0,0,0,26.31-26.31V445.31A26.34,26.34,0,0,0,967.2,419ZM637.66,127.87,787.44,274.65H636.81ZM807.5,419h-591V107.5H607.78l-1.05,182.06a15,15,0,0,0,15,15.09H807.5Z"/><path d="M370.8,631.57q-19,15.89-54.37,15.89H271.29v78h-45V508.6h93.09q32.19,0,51.33,16.77t19.14,51.92Q389.84,615.68,370.8,631.57Zm-34.58-78.11q-8.6-7.2-24.11-7.21H271.29V610.1h40.83q15.51,0,24.11-7.8t8.61-24.71Q344.83,560.68,336.22,553.47Z"/><path d="M458.83,658.49q2.1,14.86,8.26,22.21,11.26,13.39,38.6,13.39,16.37,0,26.58-3.53,19.38-6.76,19.38-25.15,0-10.73-9.49-16.62Q532.66,643,512,638.63l-23.47-5.15Q454,625.84,441,616.86q-21.92-15-21.92-46.92,0-29.12,21.44-48.39t63-19.27q34.69,0,59.19,18.17t25.69,52.73H544.88q-1.21-19.56-17.49-27.8-10.86-5.44-27-5.44-17.95,0-28.65,7.06T461,566.7q0,11.62,10.56,17.36,6.79,3.83,28.8,9l38,9q25,5.88,37.5,15.74Q595.33,633,595.33,662q0,29.71-23,49.35T507.46,731q-42.82,0-67.35-19.34t-24.53-53.17Z"/><path d="M754.14,513.31a71.65,71.65,0,0,1,36.95,27.51,96.44,96.44,0,0,1,15.46,35,167.88,167.88,0,0,1,4.12,35.89q0,43.24-17.37,73.25-23.55,40.45-72.72,40.45H627.1V508.6h93.48Q740.75,508.9,754.14,513.31Zm-83.06,32.95v141.5h41.84q32.12,0,44.78-31.62,6.92-17.35,6.92-41.33,0-33.1-10.39-50.82t-41.32-17.72Z"/></svg>