<svg id="Layer_1" data-name="Layer 1" xmlns="http://www.w3.org/2000/svg" viewBox="0 0 1024 1024"><defs><style>.cls-1{fill:none;}</style></defs><title>icon</title><polygon class="cls-1" points="807.5 294.3 616.88 107.5 216.5 107.5 216.5 419 807.5 419 807.5 294.3"/><polyline class="cls-1" points="186.5 449 60.5 449 60.5 787 186.5 787"/><rect class="cls-1" x="216.5" y="817" width="591" height="99.5"/><path d="M807.5,916.5h-591V817h-30V921.5a25,25,0,0,0,25,25h601a25,25,0,0,0,25-25V817h-30Z"/><rect x="216.5" y="787" width="591" height="30"/><path d="M967.2,419H837.5V288a15,15,0,0,0-4.5-10.71L633.5,81.79A15,15,0,0,0,623,77.5H211.5a25,25,0,0,0-25,25V419H56.8A26.34,26.34,0,0,0,30.5,445.31V790.69A26.34,26.34,0,0,0,56.8,817H216.5V787H60.5V449h903V787h-156v30H967.2a26.34,26.34,0,0,0,26.31-26.31V445.31A26.34,26.34,0,0,0,967.2,419ZM637.66,127.87,787.44,274.65H636.81ZM807.5,419h-591V107.5H607.78l-1.05,182.06a15,15,0,0,0,15,15.09H807.5Z"/><path d="M232.38,508.6,261,632.76l6.24,34.55,6.25-33.85L298,508.6h47.8l25.76,124.14,6.6,34.57,6.69-33.23,28.9-125.49h46.13l-61,216.81H355.49L329.31,598.62l-7.65-41.92L314,598.62,287.83,725.41H245.76L184.28,508.6Z"/><path d="M532.74,508.6H584l76.71,216.81H611.58l-14.31-44.57H517.43l-14.7,44.57H455.34Zm-3,134.88h55.53l-27.39-85.31Z"/><path d="M792.94,508.6H840L766.1,725.41h-42.8L650,508.6h48.39l47.07,164.6Z"/></svg>