<?xml version="1.0" encoding="iso-8859-1"?>
<!-- Generator: Adobe Illustrator 19.0.0, SVG Export Plug-In . SVG Version: 6.00 Build 0)  -->
<svg version="1.1"  xmlns="http://www.w3.org/2000/svg" xmlns:xlink="http://www.w3.org/1999/xlink" x="0px" y="0px"
	 viewBox="0 0 512 512" style="enable-background:new 0 0 512 512;" xml:space="preserve">
<g>
	<g>
		<path d="M511.943,273.407c0-0.113,0.017-0.228,0.017-0.341h-0.159L438.089,98.348c3.533-5.376,5.604-11.798,5.604-18.705
			c0-18.859-15.286-34.133-34.139-34.133c-14.91,0-27.563,9.585-32.199,22.926h-53.566l1.366-6.365
			c2.623-12.237-5.473-22.25-17.988-22.25H204.771c-12.515,0-20.611,10.013-17.988,22.25l1.36,6.365h-53.561
			c-4.637-13.34-17.294-22.926-32.216-22.926c-18.848,0-34.122,15.275-34.122,34.133c0,6.906,2.065,13.324,5.598,18.7L0,273.487
			c0.244,53.208,45.977,96.29,102.378,96.29c56.383,0,102.065-43.037,102.366-96.204L130.902,98.355
			c2.509-3.817,4.256-8.175,5.069-12.851h55.837l2.509,11.714c2.623,12.237,15.007,22.25,27.517,22.25h5.689v278.756h-56.884
			c-12.515,0-25.765,9.785-29.451,21.749l-9.364,30.458c-3.681,11.964,3.544,21.749,16.06,21.749h216.172
			c12.515,0,19.746-9.785,16.06-21.749l-9.364-30.458c-3.686-11.964-16.936-21.749-29.451-21.749h-56.889V119.466h5.689
			c12.515,0,24.9-10.013,27.523-22.25l2.509-11.714h55.837c0.814,4.671,2.548,9.011,5.052,12.829l-74.015,175.081l0.177,0.074
			c0.25,53.208,45.984,96.29,102.389,96.29c56.383,0,102.07-43.042,102.36-96.204l0.067-0.029L511.943,273.407z M102.366,62.577
			c9.41,0,17.078,7.657,17.078,17.067s-7.669,17.067-17.078,17.067S85.31,89.053,85.31,79.644S92.957,62.577,102.366,62.577z
			 M102.378,352.71c-40.777,0-74.968-26.84-83.359-62.577h166.718C177.34,325.87,143.15,352.71,102.378,352.71z M186.089,273.067
			H18.5v-0.001l68.83-162.821c4.534,2.242,9.631,3.533,15.036,3.533c5.398,0,10.496-1.291,15.036-3.527L186.089,273.067z
			 M341.299,415.289v-0.001c5.029,0,11.663,4.892,13.142,9.7l9.261,30.123H148.24l9.261-30.117
			c1.473-4.813,8.106-9.705,13.136-9.705h56.884h56.889H341.299z M244.588,398.221V119.466h22.756v278.755H244.588z M308.469,58.493
			l-7.532,35.146c-0.933,4.34-6.4,8.76-10.838,8.76h-68.267c-4.431,0-9.898-4.42-10.826-8.76l-7.538-35.14
			c-0.188-0.876-0.097-1.32-0.12-1.366c0.113-0.057,0.529-0.239,1.428-0.239H307.17c0.847,0,1.275,0.165,1.354,0.165h0.011
			C308.565,57.172,308.656,57.617,308.469,58.493z M409.554,62.577c9.415,0,17.078,7.657,17.078,17.067s-7.663,17.067-17.078,17.067
			c-9.403,0-17.056-7.657-17.056-17.067S400.151,62.577,409.554,62.577z M409.571,352.71c-40.784,0-74.974-26.84-83.365-62.577
			h166.718C484.528,325.87,450.338,352.71,409.571,352.71z M325.689,273.067l68.835-162.821c4.534,2.241,9.631,3.532,15.03,3.532
			c5.398,0,10.496-1.291,15.036-3.527l68.687,162.816H325.689z"/>
	</g>
</g>
<g>
</g>
<g>
</g>
<g>
</g>
<g>
</g>
<g>
</g>
<g>
</g>
<g>
</g>
<g>
</g>
<g>
</g>
<g>
</g>
<g>
</g>
<g>
</g>
<g>
</g>
<g>
</g>
<g>
</g>
</svg>
