<?xml version="1.0" encoding="iso-8859-1"?>
<!-- Generator: Adobe Illustrator 19.0.0, SVG Export Plug-In . SVG Version: 6.00 Build 0)  -->
<svg version="1.1" id="Capa_1" xmlns="http://www.w3.org/2000/svg" xmlns:xlink="http://www.w3.org/1999/xlink" x="0px" y="0px"
	 viewBox="0 0 512 512" style="enable-background:new 0 0 512 512;" xml:space="preserve">
<path style="fill:#3199FF;" d="M456.336,150.004c-0.006-0.38-0.024-0.757-0.056-1.134c-0.012-0.14-0.021-0.28-0.037-0.421
	c-0.053-0.488-0.121-0.972-0.217-1.453c-0.004-0.021-0.011-0.042-0.014-0.063c-0.094-0.459-0.21-0.912-0.342-1.362
	c-0.041-0.139-0.087-0.276-0.13-0.414c-0.112-0.349-0.236-0.695-0.372-1.036c-0.05-0.126-0.097-0.253-0.15-0.378
	c-0.191-0.452-0.398-0.898-0.631-1.335c-0.011-0.021-0.024-0.041-0.037-0.062c-0.22-0.41-0.463-0.809-0.719-1.202
	c-0.078-0.12-0.16-0.236-0.242-0.354c-0.208-0.302-0.427-0.598-0.657-0.887c-0.09-0.114-0.177-0.228-0.27-0.338
	c-0.318-0.381-0.649-0.754-1.004-1.109L317.893,4.89c-0.356-0.356-0.729-0.688-1.111-1.006c-0.109-0.091-0.22-0.177-0.332-0.265
	c-0.293-0.233-0.592-0.454-0.898-0.664c-0.115-0.079-0.227-0.158-0.343-0.234c-0.402-0.262-0.809-0.511-1.229-0.736
	c-0.012-0.007-0.024-0.014-0.037-0.021c-0.439-0.234-0.888-0.442-1.343-0.634c-0.12-0.051-0.243-0.097-0.364-0.145
	c-0.347-0.138-0.698-0.264-1.053-0.377c-0.134-0.043-0.267-0.087-0.402-0.127c-0.459-0.135-0.92-0.255-1.388-0.348
	c-0.013-0.002-0.026-0.007-0.039-0.009c-0.482-0.096-0.969-0.165-1.459-0.218c-0.137-0.014-0.274-0.024-0.411-0.036
	c-0.381-0.032-0.762-0.051-1.146-0.057C306.254,0.011,306.17,0,306.087,0H72.348c-9.22,0-16.696,7.475-16.696,16.696v478.609
	c0,9.22,7.475,16.696,16.696,16.696h367.304c9.22,0,16.696-7.475,16.696-16.696V150.261
	C456.348,150.175,456.337,150.091,456.336,150.004z M399.345,133.565h-76.563V57.002l38.281,38.281L399.345,133.565z
	 M89.043,478.609V33.391h200.348v116.87c0,9.22,7.475,16.696,16.696,16.696h116.87v311.652H89.043z"/>
<g>
	<path style="fill:#B8C8D9;" d="M372.87,278.261H139.13c-9.22,0-16.696-7.475-16.696-16.696c0-9.22,7.475-16.696,16.696-16.696
		H372.87c9.22,0,16.696,7.475,16.696,16.696C389.565,270.786,382.09,278.261,372.87,278.261z"/>
	<path style="fill:#B8C8D9;" d="M372.87,345.043H139.13c-9.22,0-16.696-7.475-16.696-16.696s7.475-16.696,16.696-16.696H372.87
		c9.22,0,16.696,7.475,16.696,16.696S382.09,345.043,372.87,345.043z"/>
	<path style="fill:#B8C8D9;" d="M272.696,411.826H139.13c-9.22,0-16.696-7.475-16.696-16.696c0-9.22,7.475-16.696,16.696-16.696
		h133.565c9.22,0,16.696,7.475,16.696,16.696C289.391,404.351,281.916,411.826,272.696,411.826z"/>
</g>
<g>
</g>
<g>
</g>
<g>
</g>
<g>
</g>
<g>
</g>
<g>
</g>
<g>
</g>
<g>
</g>
<g>
</g>
<g>
</g>
<g>
</g>
<g>
</g>
<g>
</g>
<g>
</g>
<g>
</g>
</svg>
