<?xml version="1.0" encoding="iso-8859-1"?>
<!-- Generator: Adobe Illustrator 18.0.0, SVG Export Plug-In . SVG Version: 6.00 Build 0)  -->
<!DOCTYPE svg PUBLIC "-//W3C//DTD SVG 1.1//EN" "http://www.w3.org/Graphics/SVG/1.1/DTD/svg11.dtd">
<svg version="1.1" id="Capa_1" xmlns="http://www.w3.org/2000/svg" xmlns:xlink="http://www.w3.org/1999/xlink" x="0px" y="0px"
	 viewBox="0 0 59 59" style="enable-background:new 0 0 59 59;" xml:space="preserve">
<g>
	<g>
		<path style="fill:#E8D5B2;" d="M30.22,5L1.241,34.218c-0.987,0.987-0.987,2.588,0,3.576l20.466,20.466
			c0.987,0.987,2.588,0.987,3.576,0L53.5,29.28L53.5,5H30.22z M43.5,19c-2.209,0-4-1.791-4-4c0-2.209,1.791-4,4-4s4,1.791,4,4
			C47.5,17.209,45.709,19,43.5,19z"/>
		<path style="fill:#CBB292;" d="M43.5,7c-4.418,0-8,3.582-8,8s3.582,8,8,8s8-3.582,8-8S47.918,7,43.5,7z M43.5,19
			c-2.209,0-4-1.791-4-4c0-2.209,1.791-4,4-4s4,1.791,4,4C47.5,17.209,45.709,19,43.5,19z"/>
	</g>
	<path style="fill:#D75A4A;" d="M43.5,16c-0.256,0-0.512-0.098-0.707-0.293c-0.391-0.391-0.391-1.023,0-1.414l14-14
		c0.391-0.391,1.023-0.391,1.414,0s0.391,1.023,0,1.414l-14,14C44.012,15.902,43.756,16,43.5,16z"/>
	<path style="fill:#CBB292;" d="M23.149,51.792c-0.256,0-0.512-0.098-0.707-0.293c-0.391-0.391-0.391-1.023,0-1.414L33.05,39.479
		c0.391-0.391,1.023-0.391,1.414,0s0.391,1.023,0,1.414L23.856,51.499C23.661,51.694,23.405,51.792,23.149,51.792z"/>
	<path style="fill:#CBB292;" d="M37.29,37.649c-0.26,0-0.521-0.109-0.71-0.29c-0.181-0.189-0.29-0.449-0.29-0.71
		c0-0.26,0.109-0.52,0.29-0.71c0.37-0.37,1.06-0.37,1.42,0c0.18,0.181,0.29,0.44,0.29,0.71c0,0.271-0.11,0.521-0.29,0.71
		C37.819,37.54,37.56,37.649,37.29,37.649z"/>
	<path style="fill:#CBB292;" d="M16.786,38.357c-0.256,0-0.512-0.098-0.707-0.293c-0.391-0.391-0.391-1.023,0-1.414l10.606-10.607
		c0.391-0.391,1.023-0.391,1.414,0s0.391,1.023,0,1.414L17.493,38.064C17.298,38.26,17.042,38.357,16.786,38.357z"/>
	<path style="fill:#CBB292;" d="M25.271,39.771c-0.256,0-0.512-0.098-0.707-0.293c-0.391-0.391-0.391-1.023,0-1.414l7.071-7.071
		c0.391-0.391,1.023-0.391,1.414,0s0.391,1.023,0,1.414l-7.071,7.071C25.783,39.674,25.527,39.771,25.271,39.771z"/>
	<path style="fill:#CBB292;" d="M18.2,46.843c-0.256,0-0.512-0.098-0.707-0.293c-0.391-0.39-0.391-1.023,0-1.414l1.414-1.415
		c0.391-0.391,1.023-0.391,1.414,0c0.391,0.39,0.391,1.023,0,1.414l-1.414,1.415C18.712,46.745,18.456,46.843,18.2,46.843z"/>
	<path style="fill:#CBB292;" d="M8.301,36.942c-0.256,0-0.512-0.098-0.707-0.293c-0.391-0.391-0.391-1.023,0-1.414L18.2,24.629
		c0.391-0.391,1.023-0.391,1.414,0s0.391,1.023,0,1.414L9.008,36.649C8.812,36.845,8.557,36.942,8.301,36.942z"/>
	<path style="fill:#CBB292;" d="M22.439,22.8c-0.26,0-0.52-0.11-0.71-0.29c-0.18-0.19-0.29-0.45-0.29-0.71
		c0-0.27,0.11-0.52,0.301-0.71c0.359-0.37,1.04-0.37,1.409,0c0.181,0.18,0.29,0.44,0.29,0.71c0,0.26-0.109,0.52-0.29,0.71
		C22.96,22.689,22.71,22.8,22.439,22.8z"/>
	<path style="fill:#CBB292;" d="M13.96,41.189c-0.271,0-0.521-0.109-0.71-0.3c-0.19-0.18-0.29-0.439-0.29-0.7
		c0-0.27,0.1-0.529,0.29-0.71c0.37-0.37,1.04-0.37,1.41,0c0.189,0.19,0.3,0.44,0.3,0.71c0,0.261-0.11,0.511-0.29,0.7
		C14.479,41.08,14.22,41.189,13.96,41.189z"/>
	<path style="fill:#CBB292;" d="M22.439,42.6c-0.26,0-0.52-0.109-0.71-0.29c-0.18-0.189-0.29-0.45-0.29-0.71s0.11-0.52,0.29-0.71
		c0.37-0.37,1.051-0.37,1.42,0c0.19,0.19,0.29,0.45,0.29,0.71s-0.1,0.521-0.29,0.71C22.96,42.49,22.71,42.6,22.439,42.6z"/>
</g>
<g>
</g>
<g>
</g>
<g>
</g>
<g>
</g>
<g>
</g>
<g>
</g>
<g>
</g>
<g>
</g>
<g>
</g>
<g>
</g>
<g>
</g>
<g>
</g>
<g>
</g>
<g>
</g>
<g>
</g>
</svg>
